Coordinates
version=1
nRows=20
nColumns=34
inDegrees=yes

Units are S.I. units (second, meters, Newtons, ...)
Angles are in degrees.

endheader
time	pelvis_tilt	pelvis_list	pelvis_rotation	pelvis_tx	pelvis_ty	pelvis_tz	hip_flexion_r	hip_adduction_r	hip_rotation_r	knee_angle_r	ankle_angle_r	subtalar_angle_r	mtp_angle_r	hip_flexion_l	hip_adduction_l	hip_rotation_l	knee_angle_l	socket_flexion	socket_adduction	socket_rotation	socket_tx	socket_ty	socket_tz	pros_ankle_rx	pros_ankle_ry	pros_ankle_rz	pros_ankle_tx	pros_ankle_ty	pros_ankle_tz	foot_flex	lumbar_extension	lumbar_bending	lumbar_rotation
      0.59583333	     -1.81268072	     -2.26461970	     14.36114203	      0.01188180	      1.02543605	      0.35889413	     22.04480880	     -2.12368276	    -15.12583401	      1.92560992	     11.70370924	      4.81625725	      8.32479481	     -9.14274429	     -5.19435382	     10.01713987	    -17.91382946	      0.00000000	      0.00000000	      0.00000000	      0.00000000	      0.00000000	      0.00000000	      0.00000000	      0.00000000	      0.00000000	      0.00000000	      0.00000000	      0.00000000	     14.17443814	    -11.56304207	     -3.42196697	    -34.70270284
      0.60000000	     -1.78132045	     -2.30398164	     14.52687262	      0.01801237	      1.02437019	      0.35900259	     22.09336756	     -2.09980519	    -14.91776986	      1.69138043	     11.46515453	      4.87863836	      8.35631041	     -9.35299940	     -5.36489014	     10.10595328	    -18.17891031	      0.00000000	      0.00000000	      0.00000000	      0.00000000	      0.00000000	      0.00000000	      0.00000000	      0.00000000	      0.00000000	      0.00000000	      0.00000000	      0.00000000	     14.20546393	    -11.51143379	     -3.31117552	    -34.71605050
      0.60416667	     -1.75400851	     -2.38976071	     14.68236985	      0.02402304	      1.02332457	      0.35903266	     22.24180602	     -2.06106952	    -14.78952779	      1.28663335	     10.90800347	      4.89813064	      8.45042120	     -9.48870239	     -5.56645820	     10.12166641	    -18.53084987	      0.00000000	      0.00000000	      0.00000000	      0.00000000	      0.00000000	      0.00000000	      0.00000000	      0.00000000	      0.00000000	      0.00000000	      0.00000000	      0.00000000	     14.30242662	    -11.60534960	     -3.01506815	    -34.77121865
      0.60833333	     -1.88374861	     -2.51225472	     14.89589833	      0.03017533	      1.02203159	      0.35901736	     22.59540325	     -2.06230240	    -14.78590041	      0.78249539	     10.07481647	      4.73295507	     10.85027149	     -9.41345916	     -5.77389793	     10.26542213	    -18.95198028	      0.00000000	      0.00000000	      0.00000000	      0.00000000	      0.00000000	      0.00000000	      0.00000000	      0.00000000	      0.00000000	      0.00000000	      0.00000000	      0.00000000	     14.36681267	    -11.41107556	     -2.84363071	    -35.00591038
      0.61250000	     -1.81376029	     -2.58490320	     15.07140404	      0.03642359	      1.02117414	      0.35913325	     22.56245226	     -1.98766478	    -14.57951988	      0.46611381	      9.82719098	      4.79764417	     10.85513585	     -9.58787579	     -5.98523710	     10.32338326	    -19.32947086	      0.00000000	      0.00000000	      0.00000000	      0.00000000	      0.00000000	      0.00000000	      0.00000000	      0.00000000	      0.00000000	      0.00000000	      0.00000000	      0.00000000	     14.28602202	    -11.33933971	     -2.74571145	    -35.00461967
      0.61666667	     -1.70340965	     -2.75686696	     15.16018216	      0.04236996	      1.02030995	      0.35923381	     22.76552407	     -1.84857671	    -14.53929569	     -0.26685343	      8.94956164	      4.79143595	     10.89274678	     -9.70306256	     -6.27035779	     10.26194981	    -19.85785992	      0.00000000	      0.00000000	      0.00000000	      0.00000000	      0.00000000	      0.00000000	      0.00000000	      0.00000000	      0.00000000	      0.00000000	      0.00000000	      0.00000000	     14.40215849	    -11.57208602	     -2.23455432	    -35.00964223
      0.62083333	     -1.59848213	     -2.91428546	     15.28632204	      0.04852566	      1.01952722	      0.35936368	     22.88400900	     -1.70892966	    -14.50601753	     -0.93080986	      8.29908044	      4.75889059	     10.98717486	     -9.82161029	     -6.55402858	     10.25271277	    -20.37417095	      0.00000000	      0.00000000	      0.00000000	      0.00000000	      0.00000000	      0.00000000	      0.00000000	      0.00000000	      0.00000000	      0.00000000	      0.00000000	      0.00000000	     14.39173860	    -11.64083979	     -1.90594513	    -35.00152027
      0.62500000	     -1.79044862	     -3.08093734	     15.37754037	      0.05461977	      1.01825677	      0.35956369	     23.65995546	     -1.74750257	    -14.78172143	     -2.22971046	      7.66829522	      5.06567187	     13.62318859	     -9.54768864	     -6.74580117	     10.26877651	    -21.03260117	      0.00000000	      0.00000000	      0.00000000	      0.00000000	      0.00000000	      0.00000000	      0.00000000	      0.00000000	      0.00000000	      0.00000000	      0.00000000	      0.00000000	     14.36615512	    -11.37641259	     -1.69145297	    -34.93575149
      0.62916667	     -1.61782082	     -3.28025596	     15.46787582	      0.06077869	      1.01767938	      0.35976929	     23.71744653	     -1.53723053	    -14.77130095	     -2.94915431	      6.96540227	      5.06676102	     13.65030426	     -9.67423930	     -7.07789128	     10.19781516	    -21.64050936	      0.00000000	      0.00000000	      0.00000000	      0.00000000	      0.00000000	      0.00000000	      0.00000000	      0.00000000	      0.00000000	      0.00000000	      0.00000000	      0.00000000	     14.30661101	    -11.53301778	     -1.30287556	    -34.93341215
      0.63333333	     -1.45587408	     -3.48795375	     15.54398617	      0.06695903	      1.01711884	      0.35999492	     23.80451709	     -1.32455733	    -14.77305684	     -3.73143588	      6.29192558	      5.03290024	     13.69015855	     -9.75645661	     -7.40685713	     10.11825563	    -22.31321224	      0.00000000	      0.00000000	      0.00000000	      0.00000000	      0.00000000	      0.00000000	      0.00000000	      0.00000000	      0.00000000	      0.00000000	      0.00000000	      0.00000000	     14.22504537	    -11.65899424	     -0.89939180	    -34.90089008
      0.63750000	     -1.30287961	     -3.72168798	     15.60286125	      0.07314258	      1.01659809	      0.36026186	     23.94449424	     -1.09443669	    -14.82840996	     -4.60326966	      5.63574971	      4.96322712	     13.76169861	     -9.78971971	     -7.75287296	     10.02183175	    -23.04111065	      0.00000000	      0.00000000	      0.00000000	      0.00000000	      0.00000000	      0.00000000	      0.00000000	      0.00000000	      0.00000000	      0.00000000	      0.00000000	      0.00000000	     14.10138480	    -11.78647062	     -0.48544026	    -34.82852968
      0.64166667	     -1.14527798	     -3.96650294	     15.63451886	      0.07930348	      1.01613712	      0.36056940	     24.09047852	     -0.84695590	    -14.87870063	     -5.50882263	      5.00898132	      4.89787821	     13.83175654	     -9.78647398	     -8.09894650	      9.89452038	    -23.84616700	      0.00000000	      0.00000000	      0.00000000	      0.00000000	      0.00000000	      0.00000000	      0.00000000	      0.00000000	      0.00000000	      0.00000000	      0.00000000	      0.00000000	     13.95671559	    -11.90919801	     -0.04788507	    -34.74926240
      0.64583333	     -0.99867957	     -4.24140938	     15.65340965	      0.08547764	      1.01569389	      0.36090140	     24.28844159	     -0.58364750	    -14.98043673	     -6.49650531	      4.44355065	      4.80874613	     13.93129229	     -9.73801842	     -8.46621941	      9.76241089	    -24.69892119	      0.00000000	      0.00000000	      0.00000000	      0.00000000	      0.00000000	      0.00000000	      0.00000000	      0.00000000	      0.00000000	      0.00000000	      0.00000000	      0.00000000	     13.76307158	    -12.02564848	      0.39586449	    -34.62157319
      0.65000000	     -1.27895071	     -4.44111921	     15.53480349	      0.09152631	      1.01451146	      0.36143859	     25.50091074	     -0.68723528	    -15.45345519	     -8.62017242	      4.46305852	      5.53242918	     15.20334847	     -9.17785385	     -8.58869153	      9.62283412	    -25.73568840	      0.00000000	      0.00000000	      0.00000000	      0.00000000	      0.00000000	      0.00000000	      0.00000000	      0.00000000	      0.00000000	      0.00000000	      0.00000000	      0.00000000	     13.56060656	    -11.62024830	      0.59460243	    -34.21562614
      0.65416667	     -1.07885433	     -4.73013685	     15.51370908	      0.09773656	      1.01428177	      0.36183941	     25.53567452	     -0.35960216	    -15.50953528	     -9.43488747	      3.94099118	      5.51517881	     15.22133965	     -9.11141749	     -8.96700486	      9.42985827	    -26.72440403	      0.00000000	      0.00000000	      0.00000000	      0.00000000	      0.00000000	      0.00000000	      0.00000000	      0.00000000	      0.00000000	      0.00000000	      0.00000000	      0.00000000	     13.28710525	    -11.82392745	      1.09511389	    -34.20333099
      0.65833333	     -0.86993496	     -5.05509219	     15.51182666	      0.10396944	      1.01410585	      0.36223053	     25.61787682	     -0.02426463	    -15.65877677	    -10.37330876	      3.50098364	      5.41497639	     15.24173921	     -9.01816916	     -9.39034133	      9.24938228	    -27.73925262	      0.00000000	      0.00000000	      0.00000000	      0.00000000	      0.00000000	      0.00000000	      0.00000000	      0.00000000	      0.00000000	      0.00000000	      0.00000000	      0.00000000	     12.96866032	    -11.99544567	      1.60984743	    -34.08326192
      0.66250000	     -0.68028485	     -5.39429738	     15.47436808	      0.11019520	      1.01394863	      0.36267421	     25.74480343	      0.32102180	    -15.83505925	    -11.36408895	      3.16203886	      5.31806154	     15.26525002	     -8.87023729	     -9.80503783	      9.08643246	    -28.81980261	      0.00000000	      0.00000000	      0.00000000	      0.00000000	      0.00000000	      0.00000000	      0.00000000	      0.00000000	      0.00000000	      0.00000000	      0.00000000	      0.00000000	     12.61915499	    -12.14608755	      2.13980162	    -33.88734258
      0.66666667	     -0.84652663	     -5.68085668	     15.34143066	      0.11644838	      1.01315192	      0.36322142	     26.58582383	      0.38078572	    -16.27210534	    -13.08325691	      3.36163511	      5.89438890	     15.41607609	     -8.30448561	    -10.03993510	      8.89882799	    -30.04030995	      0.00000000	      0.00000000	      0.00000000	      0.00000000	      0.00000000	      0.00000000	      0.00000000	      0.00000000	      0.00000000	      0.00000000	      0.00000000	      0.00000000	     12.26771187	    -11.82750057	      2.43570333	    -33.50241638
      0.67083333	     -0.63332070	     -6.00971569	     15.27572354	      0.12267191	      1.01316316	      0.36373773	     26.56926500	      0.76829203	    -16.33965229	    -13.86760706	      3.06182228	      5.84515803	     15.39237579	     -8.11280041	    -10.43676498	      8.70066083	    -31.24028488	      0.00000000	      0.00000000	      0.00000000	      0.00000000	      0.00000000	      0.00000000	      0.00000000	      0.00000000	      0.00000000	      0.00000000	      0.00000000	      0.00000000	     11.75542559	    -12.04503018	      2.97222627	    -33.40287981
      0.67500000	     -0.43253561	     -6.37521452	     15.19891753	      0.12896926	      1.01316195	      0.36427930	     26.58214761	      1.17900039	    -16.48674248	    -14.68288147	      2.83668000	      5.74404239	     15.34794108	     -7.87928355	    -10.87276088	      8.47740370	    -32.47537187	      0.00000000	      0.00000000	      0.00000000	      0.00000000	      0.00000000	      0.00000000	      0.00000000	      0.00000000	      0.00000000	      0.00000000	      0.00000000	      0.00000000	     11.24875012	    -12.21617690	      3.50674748	    -33.21726217
